<svg width="1440" height="686" viewBox="0 0 1440 686" fill="none" xmlns="http://www.w3.org/2000/svg">
<g clip-path="url(#clip0_29_634)">
<rect width="1440" height="686" fill="#C6AB97"/>
<g clip-path="url(#clip1_29_634)">
<path d="M1435.68 -141.5H-18.502V827.5H1435.68V-141.5Z" fill="#BEE7FD"/>
<path d="M288.408 68.5404C288.873 77.1645 281.176 84.0444 273.401 87.9204C260.119 94.3352 243.988 95.6724 230.629 89.3933C229.376 88.8197 228.159 88.1726 226.983 87.4553C204.189 97.8349 179.107 102.181 154.147 100.077C129.187 97.9729 105.187 89.4888 84.4541 75.4397C65.065 99.5678 1.41058 99.5872 -1.47839 58.3465C-1.47839 57.2419 -1.59473 56.0984 -1.59473 54.9356C-1.50911 49.2786 -0.185518 43.7089 2.28309 38.6177C5.05848 32.8298 9.07262 27.7223 14.0415 23.6566C19.0103 19.591 24.8124 16.6666 31.0371 15.0904C43.5431 12.1252 77.92 15.8074 83.5041 30.982C81.6117 25.2471 81.8842 19.0183 84.2701 13.4704C86.656 7.92249 90.9905 3.43896 96.456 0.86544C102.085 -1.32568 108.322 -1.38234 113.991 0.706123C119.659 2.79459 124.367 6.88384 127.227 12.2027C127.847 -15.7045 156.019 -39.755 183.688 -35.9953C211.356 -32.2356 232.16 -1.55706 225.258 25.5168C228.457 13.8888 246.004 10.7492 254.962 18.9664C261.418 24.7804 263.396 34.1409 261.845 42.9007C261.561 44.4979 261.159 46.072 260.643 47.61C263.825 48.3398 266.965 49.2456 270.047 50.3232C278.597 53.3465 287.73 59.2574 288.389 68.2691C288.389 68.366 288.408 68.4435 288.408 68.5404Z" fill="white"/>
<path d="M1418.75 16.3696C1419.22 25.013 1411.52 31.8736 1403.75 35.7495C1390.48 42.1643 1374.33 43.5016 1360.97 37.203C1359.73 36.6222 1358.51 35.9753 1357.33 35.2651C1334.53 45.6363 1309.45 49.9765 1284.49 47.869C1259.53 45.7615 1235.53 37.2771 1214.8 23.2301C1195.41 47.3582 1131.76 47.3775 1128.87 6.13691C1128.87 5.03225 1128.75 3.88882 1128.75 2.72603C1128.83 -2.93755 1130.16 -8.51416 1132.63 -13.6113C1135.42 -19.3632 1139.43 -24.4358 1144.39 -28.4733C1149.35 -32.5108 1155.13 -35.4154 1161.33 -36.9836C1173.89 -39.9681 1208.21 -36.2859 1213.79 -21.092C1211.72 -26.8082 1211.9 -33.1018 1214.32 -38.6829C1216.74 -44.2639 1221.2 -48.7095 1226.79 -51.1084C1232.38 -53.5072 1238.68 -53.6776 1244.39 -51.5847C1250.1 -49.4917 1254.8 -45.2939 1257.51 -39.8518C1258.19 -67.8559 1286.38 -91.8871 1314.03 -88.1274C1341.68 -84.3677 1362.51 -53.7085 1355.6 -26.6153C1358.8 -38.3596 1376.35 -41.3829 1385.31 -33.1851C1391.76 -27.3711 1393.74 -17.9912 1392.19 -9.25082C1391.91 -7.64719 1391.51 -6.06667 1390.99 -4.52209C1394.18 -3.80134 1397.33 -2.89539 1400.41 -1.80888C1408.94 1.21439 1418.08 7.12528 1418.73 16.137C1418.73 16.2145 1418.75 16.292 1418.75 16.3696Z" fill="white"/>
<path d="M446.584 219.317C446.875 224.918 441.892 229.375 436.89 231.837C432.616 234.013 427.916 235.225 423.122 235.39C418.329 235.554 413.557 234.665 409.144 232.786C408.33 232.399 407.554 231.972 406.779 231.507C391.988 238.248 375.711 241.076 359.512 239.718C343.313 238.361 327.735 232.864 314.273 223.755C301.728 239.414 260.372 239.414 258.491 212.65C258.452 211.914 258.452 211.177 258.491 210.441C258.545 206.763 259.412 203.143 261.031 199.84C262.839 196.104 265.444 192.809 268.664 190.188C271.883 187.566 275.637 185.681 279.664 184.666C287.807 182.728 310.085 185.131 313.711 194.995C312.539 191.326 312.775 187.351 314.374 183.846C315.973 180.342 318.82 177.557 322.361 176.036C325.901 174.514 329.881 174.365 333.526 175.616C337.171 176.867 340.219 179.43 342.077 182.805C342.484 164.685 360.768 149.084 378.742 151.526C396.716 153.968 410.152 173.871 405.712 191.449C407.787 183.832 419.168 181.856 424.985 187.185C426.967 189.19 428.416 191.659 429.198 194.367C429.98 197.076 430.072 199.937 429.464 202.689C429.272 203.725 429.013 204.748 428.688 205.751C430.757 206.217 432.797 206.806 434.796 207.515C440.322 209.453 446.255 213.329 446.681 219.143C446.565 219.201 446.584 219.259 446.584 219.317Z" fill="white"/>
<path d="M950.488 130.421C950.178 136.041 955.18 140.537 960.183 142.979C964.471 145.162 969.186 146.381 973.996 146.548C978.807 146.716 983.595 145.828 988.025 143.948C988.84 143.56 989.635 143.134 990.41 142.669C1005.25 149.437 1021.58 152.279 1037.83 150.921C1054.09 149.564 1069.72 144.053 1083.23 134.917C1095.81 150.615 1137.32 150.634 1139.2 123.773C1139.2 123.056 1139.2 122.32 1139.2 121.564C1139.14 117.872 1138.27 114.239 1136.64 110.924C1134.82 107.179 1132.21 103.875 1128.98 101.244C1125.75 98.6131 1121.99 96.7182 1117.95 95.6917C1109.77 93.7537 1087.41 96.1569 1083.79 106.041C1085.2 102.305 1085.11 98.1711 1083.54 94.4987C1081.98 90.8263 1079.06 87.8987 1075.39 86.3255C1071.72 84.7522 1067.58 84.6544 1063.84 86.0525C1060.1 87.4506 1057.04 90.2369 1055.31 93.8313C1054.9 75.6528 1036.56 59.9938 1018.47 62.4357C1000.38 64.8775 986.94 84.8583 991.321 102.494C989.227 94.8584 977.749 92.8041 971.932 98.2305C969.952 100.236 968.504 102.706 967.722 105.414C966.94 108.121 966.847 110.982 967.453 113.735C967.634 114.78 967.893 115.81 968.229 116.816C966.153 117.279 964.107 117.868 962.102 118.58C956.537 120.518 950.585 124.394 950.158 130.208L950.488 130.421Z" fill="white"/>
<mask id="mask0_29_634" style="mask-type:luminance" maskUnits="userSpaceOnUse" x="-19" y="111" width="1455" height="594">
<path d="M1435.68 111.196H-18.502V704.921H1435.68V111.196Z" fill="white"/>
</mask>
<g mask="url(#mask0_29_634)">
<path d="M80.2467 555.037C80.411 555.538 80.6758 556.001 81.0252 556.396C81.3745 556.792 81.8009 557.112 82.2783 557.337C82.7557 557.562 83.274 557.687 83.8015 557.705C84.329 557.722 84.8546 557.632 85.3461 557.44C84.8033 558.319 84.5289 559.337 84.5565 560.37C84.584 561.403 84.9123 562.405 85.5012 563.254C86.0795 564.053 86.8814 564.664 87.806 565.009C88.7306 565.353 89.7367 565.417 90.6975 565.192C87.7115 570.114 85.3461 575.851 86.6839 581.432C88.0218 587.014 93.4895 591.859 99.1899 591.006C102.267 590.37 105.016 588.659 106.946 586.18C108.588 588.839 111.216 590.741 114.255 591.471L114.876 591.607C115.879 591.819 116.924 591.711 117.862 591.297C118.34 591.056 118.727 590.667 118.968 590.19C119.209 589.712 119.29 589.169 119.199 588.642C119.82 589.5 120.645 590.191 121.6 590.651C122.554 591.111 123.608 591.327 124.667 591.277C125.529 591.215 126.367 590.972 127.129 590.565C127.89 590.157 128.558 589.595 129.088 588.913C129.304 588.638 129.498 588.346 129.67 588.041C130.095 588.652 130.575 589.223 131.104 589.746C131.232 594.658 131.018 599.573 130.465 604.456C128.7 619.96 123.892 635.018 118.831 649.805C126.264 649.977 133.695 649.399 141.012 648.08C143.054 634.569 143.523 620.866 142.408 607.246C150.935 602.684 157.747 595.474 161.817 586.704C162.732 587.33 163.81 587.673 164.919 587.692C165.852 587.761 166.787 587.587 167.633 587.188C168.585 586.582 169.331 585.702 169.773 584.665C170.216 583.627 170.335 582.48 170.115 581.374C171.18 581.38 172.231 581.128 173.176 580.638C174.122 580.149 174.935 579.437 175.544 578.564C175.708 578.342 175.857 578.109 175.99 577.866C176.598 576.772 176.974 575.565 177.095 574.32C178.755 575.185 180.553 575.755 182.408 576.006C184.712 576.308 187.056 576.068 189.25 575.304C191.445 574.54 193.431 573.274 195.05 571.607C197.326 569.091 198.535 565.791 198.423 562.401C198.371 561.127 198.109 559.87 197.648 558.68C196.776 556.523 195.247 554.696 193.277 553.457C191.307 552.219 188.996 551.632 186.674 551.781C187.801 550.794 188.638 549.518 189.092 548.09C189.547 546.662 189.602 545.137 189.252 543.68C188.945 542.173 188.229 540.779 187.184 539.65C186.139 538.521 184.804 537.7 183.325 537.277C181.846 536.853 180.278 536.843 178.794 537.247C177.309 537.652 175.964 538.456 174.904 539.571C175.125 538.983 175.173 538.344 175.043 537.729C174.912 537.115 174.609 536.55 174.168 536.103C173.71 535.65 173.137 535.333 172.511 535.186C171.885 535.039 171.23 535.068 170.619 535.269C173.644 530.288 176.611 525.269 177.328 519.474C178.153 513.648 176.911 507.718 173.819 502.711C172.254 500.242 170.117 498.187 167.589 496.72C165.061 495.252 162.216 494.416 159.296 494.28C156.376 494.23 153.511 495.074 151.085 496.699C148.658 498.324 146.788 500.651 145.724 503.37C145.503 501.372 144.619 499.506 143.213 498.07C141.808 496.633 139.961 495.708 137.968 495.443C136.027 495.327 134.11 495.92 132.573 497.11C131.036 498.301 129.984 500.009 129.611 501.916C128.517 500.638 127.1 499.676 125.507 499.131C123.915 498.586 122.205 498.477 120.557 498.815C119.046 499.238 117.662 500.027 116.529 501.113C115.396 502.198 114.549 503.545 114.061 505.036C113.588 506.529 113.422 508.102 113.572 509.66C113.722 511.219 114.185 512.731 114.934 514.106C114.109 513.488 113.086 513.196 112.059 513.286C111.032 513.375 110.075 513.84 109.369 514.591C108.749 515.367 108.324 516.281 108.128 517.255C107.932 518.229 107.972 519.236 108.245 520.191C108.795 522.094 109.653 523.895 110.785 525.521C109.981 525.275 109.118 525.297 108.328 525.584C107.538 525.871 106.862 526.406 106.403 527.11C105.536 528.513 105.085 530.132 105.104 531.781C102.866 527.872 100.034 524.335 96.7081 521.296C95.0026 519.804 92.9797 518.72 90.7928 518.126C88.6058 517.531 86.3122 517.443 84.0858 517.866C82.3472 518.326 80.7447 519.197 79.413 520.405C77.7336 522.007 76.4284 523.959 75.5906 526.123C74.7527 528.287 74.4028 530.609 74.5657 532.924C74.9535 539.339 78.5793 545.095 82.7867 549.94C80.6733 550.153 79.6651 552.982 80.2467 555.037ZM141.652 600.599C141.361 598.196 141.012 595.793 140.624 593.39H140.993C141.703 593.317 142.405 593.174 143.087 592.963C144.821 592.416 146.414 591.496 147.754 590.267C149.094 589.038 150.148 587.531 150.842 585.851C151.202 586.709 151.752 587.474 152.451 588.088C153.149 588.702 153.978 589.15 154.875 589.398C155.217 589.493 155.568 589.552 155.922 589.572C156.328 589.63 156.739 589.63 157.144 589.572C153.101 594.61 147.738 598.428 141.652 600.599Z" fill="#58C5F4"/>
<path d="M-62.302 540.211C-61.6149 542.097 -60.4205 543.757 -58.8503 545.009C-57.2802 546.26 -55.395 547.054 -53.4024 547.304C-54.7939 548.292 -55.89 549.641 -56.5732 551.204C-57.2563 552.768 -57.5007 554.488 -57.2802 556.18C-57.0478 557.93 -56.362 559.59 -55.2908 560.993C-54.2195 562.397 -52.7999 563.497 -51.1726 564.184C-51.3025 565.987 -51.021 567.796 -50.3492 569.475C-49.6775 571.154 -48.6331 572.658 -47.2948 573.874C-45.9156 575.067 -44.2794 575.925 -42.5138 576.383C-40.7481 576.84 -38.9007 576.883 -37.1155 576.51C-35.7525 576.266 -34.484 575.648 -33.451 574.727C-32.9597 574.26 -32.5885 573.681 -32.3691 573.04C-32.1496 572.399 -32.0884 571.714 -32.1907 571.045C-31.0579 572.619 -29.5099 573.847 -27.7194 574.593C-25.9288 575.339 -23.9661 575.573 -22.0502 575.269C-20.5389 574.961 -19.1231 574.297 -17.9203 573.331C-23.9078 605.753 -23.6907 639.015 -17.2805 671.355C-5.3174 670.386 6.2579 669.844 18.221 668.875C9.64541 650.957 3.56537 631.949 0.15033 612.382C8.04583 603.543 14.5331 593.542 19.3843 582.731C20.4454 582.376 21.4191 581.801 22.2413 581.042C23.0635 580.284 23.7154 579.36 24.154 578.331C24.3677 578.504 24.5946 578.659 24.8327 578.797C26.7946 579.88 29.0505 580.312 31.2741 580.03C33.4978 579.748 35.5741 578.766 37.2029 577.227C39.084 575.369 40.338 572.971 40.7899 570.366C41.1943 568.274 41.1414 566.119 40.6348 564.048L40.3439 563.002C42.2203 562.712 44.0207 562.054 45.6417 561.066C47.2627 560.077 48.6723 558.779 49.7895 557.244C50.9066 555.71 51.7093 553.97 52.1514 552.124C52.5934 550.279 52.6661 548.364 52.3652 546.49C53.9497 546.882 55.5989 546.936 57.2057 546.649C58.8125 546.361 60.3408 545.74 61.6914 544.823C64.2785 543.007 66.2958 540.494 67.5081 537.575C68.6038 535.172 69.2228 532.579 69.3307 529.94C69.3898 528.259 69.1936 526.58 68.749 524.959C68.2291 522.861 67.2279 520.912 65.8246 519.267C64.4214 517.622 62.6545 516.327 60.6637 515.482C58.6391 514.706 56.4322 514.534 54.3118 514.988C52.1913 515.442 50.2486 516.503 48.72 518.04C49.6259 516.697 50.1323 515.125 50.1803 513.506C50.2284 511.887 49.8161 510.287 48.9915 508.893C54.536 503.449 58.2723 496.433 59.6943 488.796C60.3277 484.937 60.1221 480.987 59.0917 477.215C58.0612 473.443 56.2299 469.937 53.7224 466.935C51.155 463.983 47.8185 461.8 44.0839 460.63C40.3493 459.46 36.3632 459.348 32.5689 460.307C33.3215 457.906 33.4782 455.359 33.0256 452.884C32.5729 450.409 31.5245 448.081 29.9708 446.102C28.4504 444.157 26.4621 442.629 24.1911 441.66C21.9202 440.691 19.4407 440.312 16.984 440.56C14.5273 440.808 12.1733 441.673 10.1417 443.076C8.11015 444.479 6.46716 446.373 5.366 448.582C5.11395 444.183 -0.0823364 440.617 -4.46428 440.83C-6.65722 441.059 -8.7428 441.895 -10.4863 443.244C-12.2299 444.593 -13.5622 446.401 -14.3333 448.466C-15.8182 452.648 -15.777 457.219 -14.217 461.373C-15.6875 459.98 -17.547 459.068 -19.5486 458.756C-21.5503 458.445 -23.5994 458.749 -25.4239 459.629C-27.1602 460.625 -28.5453 462.135 -29.389 463.949C-30.2326 465.764 -30.4934 467.796 -30.1355 469.765C-31.6503 468.706 -33.4541 468.138 -35.3027 468.138C-37.1512 468.138 -38.955 468.706 -40.4698 469.765C-41.8799 470.862 -42.902 472.381 -43.3869 474.099C-43.8718 475.818 -43.794 477.647 -43.1649 479.319C-45.6466 479.474 -48.0633 480.176 -50.242 481.373C-52.5137 482.612 -54.5144 484.293 -56.1261 486.316C-57.7378 488.34 -58.9279 490.666 -59.6263 493.156C-60.5252 496.866 -60.2635 500.761 -58.8765 504.317C-57.4895 507.873 -55.0441 510.918 -51.8706 513.04C-54.9729 514.765 -55.9424 519.145 -54.9147 522.73C-57.3125 524.114 -59.3411 526.055 -60.8284 528.389C-61.319 529.189 -61.7344 530.032 -62.0693 530.909C-63.2417 533.885 -63.3241 537.18 -62.302 540.211ZM-1.63347 599.94C-2.45304 592.7 -2.90603 585.423 -2.9907 578.138C-1.44587 578.348 0.124283 578.275 1.6433 577.924C3.29192 577.591 4.85619 576.928 6.24223 575.976C7.62827 575.024 8.80751 573.801 9.70916 572.382C9.17348 573.955 9.12177 575.652 9.56068 577.255C9.9996 578.858 10.909 580.293 12.1716 581.374C12.482 581.624 12.8056 581.857 13.141 582.072C9.04644 588.668 4.07637 594.678 -1.63347 599.94Z" fill="#58C5F4"/>
<path d="M182.117 566.044C181.963 568.205 182.298 570.372 183.097 572.385C183.896 574.398 185.138 576.205 186.732 577.672C188.218 578.935 190.022 579.766 191.947 580.076C191.366 583.642 192.182 587.296 194.226 590.277C196.269 593.258 199.384 595.338 202.922 596.083C203.056 597.997 203.675 599.844 204.722 601.451C205.769 603.058 207.209 604.372 208.905 605.268C210.601 606.164 212.498 606.613 214.416 606.573C216.334 606.532 218.211 606.004 219.868 605.037C220.68 606.232 221.856 607.134 223.222 607.609C224.587 608.083 226.07 608.106 227.449 607.673C227.386 609.488 227.801 611.288 228.651 612.893C229.502 614.498 230.759 615.852 232.296 616.82C234.778 618.371 237.669 619.141 240.595 619.029C241.308 619.009 242.02 618.951 242.727 618.855C243.251 618.855 243.794 618.681 244.317 618.564C244.099 630.456 242.866 642.308 240.633 653.991C244.511 654.398 248.389 654.979 252.267 655.386C254.503 642.996 254.98 630.352 253.682 617.828C256.046 618.681 258.61 618.816 261.05 618.215C263.071 617.655 264.926 616.612 266.456 615.178C267.986 613.743 269.145 611.959 269.833 609.979C270.691 610.182 271.586 610.153 272.428 609.894C273.27 609.635 274.028 609.156 274.623 608.506C275.218 607.828 275.628 607.008 275.811 606.125C275.995 605.242 275.946 604.326 275.67 603.467C277.39 602.688 278.924 601.55 280.168 600.129C281.412 598.709 282.337 597.038 282.882 595.231C283.19 594.243 283.372 593.221 283.425 592.188C283.506 589.944 283.012 587.716 281.99 585.715C282.845 584.695 283.502 583.526 283.929 582.265C286.755 581.249 289.216 579.417 291.001 577.003C292.785 574.588 293.813 571.698 293.953 568.699C293.984 566.291 293.453 563.909 292.402 561.742C290.866 558.288 288.103 555.526 284.647 553.99C286.578 553.057 288.145 551.511 289.103 549.592C290.061 547.674 290.355 545.493 289.94 543.389C289.449 541.319 288.272 539.476 286.6 538.16C284.927 536.843 282.859 536.132 280.73 536.141C281.993 533.11 282.228 529.749 281.398 526.572C280.568 523.395 278.719 520.577 276.135 518.551C273.55 516.524 270.373 515.399 267.088 515.349C263.804 515.299 260.593 516.326 257.948 518.273C256.524 517.463 254.846 517.223 253.253 517.601C251.659 517.978 250.267 518.946 249.359 520.308C248.534 519.214 247.501 518.293 246.32 517.598C245.139 516.903 243.833 516.447 242.475 516.257C241.183 516.061 239.864 516.132 238.6 516.465C237.336 516.798 236.154 517.387 235.127 518.195C233.675 514.547 231.206 511.392 228.013 509.104C224.821 506.816 221.039 505.491 217.115 505.287C213.192 505.083 209.293 506.008 205.88 507.953C202.467 509.897 199.684 512.779 197.861 516.257C196.01 519.781 195.164 523.746 195.417 527.718C195.67 531.69 197.012 535.516 199.296 538.777C196.497 538.779 193.732 539.388 191.191 540.56C190.396 540.962 189.642 541.442 188.942 541.994C187.439 543.178 186.303 544.764 185.665 546.568C185.125 547.85 184.96 549.259 185.19 550.632C185.42 552.004 186.035 553.283 186.964 554.32C184.211 557.655 182.523 561.739 182.117 566.044ZM266.149 572.052C266.711 571.917 267.252 571.708 267.759 571.432C267.642 572.013 267.526 572.595 267.429 573.196L266.149 572.052Z" fill="#58C5F4"/>
<path d="M27.0236 589.979C26.8997 591.62 27.1493 593.267 27.7538 594.798C28.3582 596.329 29.3018 597.702 30.5136 598.816C31.6265 599.745 32.9635 600.367 34.3915 600.619C34.1139 602.513 34.3207 604.446 34.9925 606.239C35.1652 606.671 35.366 607.092 35.5936 607.499C36.3574 608.816 37.3826 609.963 38.6063 610.869C39.8301 611.776 41.2264 612.423 42.7094 612.77C42.811 614.215 43.279 615.61 44.0694 616.824C44.8598 618.038 45.9465 619.03 47.2271 619.708C48.5177 620.385 49.9583 620.726 51.4156 620.699C52.8729 620.671 54.2998 620.277 55.5644 619.553C56.1904 620.465 57.0973 621.148 58.1472 621.498C59.1972 621.848 60.3327 621.845 61.3811 621.491C61.3352 622.866 61.6491 624.229 62.2918 625.446C62.9344 626.663 63.8837 627.691 65.0457 628.429C66.9331 629.6 69.1274 630.18 71.3471 630.096C71.8856 630.079 72.4228 630.034 72.9564 629.96C73.3619 629.919 73.7637 629.848 74.1585 629.747C74.0048 638.764 73.0706 647.751 71.3665 656.607C74.333 656.898 77.2996 657.363 80.2467 657.654C81.9492 648.263 82.3082 638.677 81.3131 629.185C83.1114 629.832 85.0609 629.933 86.9166 629.475C88.4485 629.053 89.8546 628.264 91.0132 627.177C92.1719 626.089 93.0484 624.737 93.567 623.235C94.2166 623.392 94.8966 623.371 95.535 623.173C96.1733 622.975 96.7461 622.608 97.1928 622.111C97.6614 621.596 97.9825 620.964 98.1223 620.282C98.2622 619.6 98.2157 618.893 97.9877 618.235C99.2893 617.641 100.45 616.778 101.392 615.702C102.335 614.626 103.038 613.363 103.455 611.995C103.688 611.24 103.825 610.458 103.863 609.669C103.938 607.968 103.564 606.277 102.777 604.766C103.434 603.998 103.935 603.109 104.25 602.15C106.402 601.38 108.275 599.986 109.629 598.145C110.983 596.305 111.757 594.103 111.851 591.82C111.869 589.998 111.471 588.195 110.688 586.549C109.489 583.943 107.369 581.873 104.735 580.735C106.206 580.035 107.399 578.862 108.124 577.404C108.848 575.945 109.061 574.286 108.729 572.692C108.34 571.132 107.436 569.749 106.161 568.767C104.887 567.786 103.319 567.264 101.71 567.285C102.669 564.986 102.848 562.437 102.219 560.027C101.591 557.616 100.19 555.479 98.2305 553.94C96.2711 552.401 93.8613 551.547 91.3698 551.507C88.8784 551.467 86.4425 552.244 84.4348 553.719C83.3533 553.109 82.0812 552.93 80.8732 553.217C79.6651 553.505 78.6103 554.238 77.92 555.269C77.2979 554.46 76.5221 553.782 75.6371 553.273C74.752 552.764 73.7751 552.435 72.7625 552.304C71.7831 552.15 70.7825 552.198 69.8222 552.445C68.8619 552.691 67.9622 553.131 67.1784 553.738C66.0997 550.953 64.2389 548.538 61.8198 546.785C59.4007 545.031 56.5264 544.013 53.5424 543.854C50.5584 543.694 47.5918 544.399 44.9993 545.885C42.4068 547.37 40.2987 549.572 38.9285 552.227C37.5286 554.9 36.8913 557.907 37.0862 560.919C37.2811 563.93 38.3008 566.83 40.0337 569.301C37.9043 569.3 35.8002 569.763 33.868 570.657C33.268 570.957 32.7024 571.321 32.1811 571.742C31.0305 572.63 30.1672 573.836 29.6993 575.211C29.302 576.174 29.1823 577.229 29.3536 578.257C29.5249 579.284 29.9805 580.243 30.6688 581.025C28.5842 583.578 27.3144 586.697 27.0236 589.979ZM90.7168 594.533C91.1405 594.426 91.5504 594.27 91.9383 594.068C91.8414 594.495 91.7638 594.94 91.6863 595.405L90.7168 594.533Z" fill="#58C5F4"/>
<path d="M297.54 556.859C296.491 556.108 295.689 555.062 295.236 553.854C294.784 552.646 294.702 551.331 295.001 550.076C295.64 547.576 297.851 544.708 300.41 544.456C292.654 544.921 284.899 540.424 280.362 534.048C276.004 527.44 273.734 519.675 273.847 511.761C273.847 505.095 274.952 498.06 279.179 492.924C281.121 490.583 283.576 488.72 286.353 487.478C288.925 486.297 291.691 485.594 294.516 485.405C300.273 485.108 305.991 486.509 310.958 489.436C311.31 487.637 312.056 485.937 313.142 484.46C314.228 482.982 315.627 481.763 317.24 480.889C318.856 480.089 320.711 479.909 322.451 480.384C324.192 480.859 325.697 481.956 326.682 483.467C325.379 478.25 325.005 472.844 325.577 467.498C326.158 462.116 328.519 457.083 332.286 453.195C334.178 451.281 336.502 449.848 339.063 449.019C341.624 448.189 344.346 447.986 347.002 448.428C352.276 449.494 357.24 453.97 357.705 459.319C359.911 456.901 362.869 455.296 366.1 454.765C367.711 454.515 369.358 454.666 370.897 455.203C372.435 455.741 373.818 456.648 374.922 457.846C376.484 459.823 377.337 462.266 377.346 464.784C377.312 467.096 376.986 469.395 376.377 471.625C377.732 471.411 379.119 471.683 380.294 472.392C381.468 473.101 382.354 474.203 382.794 475.501C383.162 476.951 382.997 478.485 382.329 479.823C384.796 477.476 387.692 475.627 390.86 474.377C393.039 473.496 395.387 473.108 397.734 473.242C400.08 473.376 402.368 474.029 404.433 475.153C406.431 476.349 407.977 478.173 408.829 480.339C409.681 482.506 409.792 484.893 409.144 487.129C410.492 486.389 412.054 486.137 413.566 486.416C415.079 486.695 416.448 487.488 417.443 488.661C418.335 489.866 418.771 491.349 418.676 492.845C418.58 494.342 417.958 495.756 416.919 496.839C422.638 496.324 428.369 497.685 433.245 500.715C435.065 501.934 436.681 503.431 438.034 505.153C440.24 507.901 441.588 511.237 441.912 514.746C442.105 517.572 441.475 520.393 440.099 522.869C438.723 525.345 436.659 527.37 434.156 528.7C435.744 529.684 436.949 531.182 437.569 532.944C438.19 534.706 438.19 536.628 437.569 538.39C436.997 540.061 435.841 541.47 434.312 542.357C432.784 543.244 430.986 543.548 429.251 543.215C430.097 547.289 429.725 551.522 428.18 555.385C426.636 559.249 423.987 562.572 420.564 564.94L419.963 565.308C420.259 567.861 419.995 570.447 419.188 572.886C418.683 574.341 417.964 575.713 417.055 576.956C414.529 580.452 410.86 582.954 406.682 584.029C407.397 586.592 407.321 589.311 406.465 591.829C405.609 594.348 404.013 596.551 401.885 598.148C399.757 599.746 397.196 600.664 394.537 600.783C391.878 600.902 389.245 600.217 386.982 598.816C386.891 600.023 386.413 601.167 385.621 602.082C384.828 602.996 383.763 603.631 382.581 603.894C381.487 604.125 380.348 604.003 379.328 603.547C378.307 603.091 377.457 602.324 376.9 601.355C376.837 601.272 376.785 601.181 376.745 601.084C376.155 602.487 375.358 603.794 374.38 604.96C376.882 627.558 376.151 650.398 372.208 672.79C363.405 669.627 354.441 666.929 345.354 664.708C351.539 647.055 355.245 628.63 356.367 609.96C352.742 608.605 349.704 606.028 347.778 602.673C346.523 604.049 344.923 605.064 343.143 605.613C341.363 606.161 339.469 606.224 337.657 605.793C335.827 605.223 334.18 604.184 332.877 602.78C331.574 601.376 330.662 599.655 330.231 597.789C328.631 599.442 326.513 600.496 324.229 600.774C321.946 601.053 319.636 600.54 317.686 599.32C315.779 598.035 314.191 596.332 313.042 594.34C311.892 592.349 311.213 590.121 311.055 587.828C311.055 587.673 311.055 587.518 311.055 587.363C310.62 587.247 310.192 587.105 309.775 586.936C306.83 585.549 304.288 583.435 302.388 580.793C299.836 581.723 297.083 581.957 294.411 581.47C291.739 580.983 289.245 579.792 287.187 578.022C285.182 576.187 283.794 573.777 283.214 571.122C282.635 568.468 282.891 565.699 283.949 563.196C285.102 560.707 287.099 558.706 289.587 557.546C292.074 556.386 294.891 556.143 297.54 556.859Z" fill="#58C5F4"/>
<path d="M1271.55 481.489V521.587H1258.14V534.087H1244.31V421.392H1196.54V481.489H1171.8V522.536H1127.78V698.274H1302.98V481.489H1271.55Z" fill="#58C5F4"/>
<g style="mix-blend-mode:screen" opacity="0.5">
<path d="M1231.22 430.966H1224.18V446.954H1231.22V430.966Z" fill="#58C5F4"/>
</g>
<g style="mix-blend-mode:screen" opacity="0.5">
<path d="M1217.13 430.966H1210.09V446.954H1217.13V430.966Z" fill="#58C5F4"/>
</g>
<g style="mix-blend-mode:screen" opacity="0.5">
<path d="M1231.22 458.098H1224.18V474.087H1231.22V458.098Z" fill="#58C5F4"/>
</g>
<g style="mix-blend-mode:screen" opacity="0.5">
<path d="M1296.31 487.226H1289.27V538.195H1296.31V487.226Z" fill="#58C5F4"/>
</g>
<g style="mix-blend-mode:screen" opacity="0.5">
<path d="M1282.33 487.226H1278.8V538.195H1282.33V487.226Z" fill="#58C5F4"/>
</g>
<g style="mix-blend-mode:screen" opacity="0.5">
<path d="M1217.13 458.098H1210.09V474.087H1217.13V458.098Z" fill="#58C5F4"/>
</g>
<g style="mix-blend-mode:screen" opacity="0.5">
<path d="M1187.89 493.195H1180.85V509.184H1187.89V493.195Z" fill="#58C5F4"/>
</g>
<g style="mix-blend-mode:screen" opacity="0.5">
<path d="M1231.22 485.21H1224.18V501.199H1231.22V485.21Z" fill="#58C5F4"/>
</g>
<g style="mix-blend-mode:screen" opacity="0.5">
<path d="M1217.13 485.21H1210.09V501.199H1217.13V485.21Z" fill="#58C5F4"/>
</g>
<g style="mix-blend-mode:screen" opacity="0.5">
<path d="M1231.22 512.323H1224.18V528.312H1231.22V512.323Z" fill="#58C5F4"/>
</g>
<g style="mix-blend-mode:screen" opacity="0.5">
<path d="M1217.13 512.323H1210.09V528.312H1217.13V512.323Z" fill="#58C5F4"/>
</g>
<path d="M1136.08 630.406V498.331H1085.51V535.134H1062.23V471.296L1015.05 440.443V586.587H996.77V550.017H956.208V630.406L911.555 634.863V698.274H1137.65L1136.08 630.406Z" fill="#58C5F4"/>
<g style="mix-blend-mode:screen" opacity="0.5">
<path d="M1048.13 486.47H1041.09V502.459H1048.13V486.47Z" fill="#58C5F4"/>
</g>
<g style="mix-blend-mode:screen" opacity="0.5">
<path d="M1034.06 486.47H1027.02V502.459H1034.06V486.47Z" fill="#58C5F4"/>
</g>
<g style="mix-blend-mode:screen" opacity="0.5">
<path d="M1048.13 513.583H1041.09V529.572H1048.13V513.583Z" fill="#58C5F4"/>
</g>
<g style="mix-blend-mode:screen" opacity="0.5">
<path d="M1034.06 513.583H1027.02V529.572H1034.06V513.583Z" fill="#58C5F4"/>
</g>
<g style="mix-blend-mode:screen" opacity="0.5">
<path d="M1048.13 540.696H1041.09V556.684H1048.13V540.696Z" fill="#58C5F4"/>
</g>
<g style="mix-blend-mode:screen" opacity="0.5">
<path d="M1034.06 540.696H1027.02V556.684H1034.06V540.696Z" fill="#58C5F4"/>
</g>
<g style="mix-blend-mode:screen" opacity="0.5">
<path d="M1048.13 567.828H1041.09V583.816H1048.13V567.828Z" fill="#58C5F4"/>
</g>
<g style="mix-blend-mode:screen" opacity="0.5">
<path d="M1034.06 567.828H1027.02V583.816H1034.06V567.828Z" fill="#58C5F4"/>
</g>
<g style="mix-blend-mode:screen" opacity="0.5">
<path d="M1113.55 504.087H1106.51V583.816H1113.55V504.087Z" fill="#58C5F4"/>
</g>
<g style="mix-blend-mode:screen" opacity="0.5">
<path d="M1099.57 504.087H1096.04V583.816H1099.57V504.087Z" fill="#58C5F4"/>
</g>
<g style="mix-blend-mode:screen" opacity="0.5">
<path d="M985.272 561.083H978.234V595.483H985.272V561.083Z" fill="#58C5F4"/>
</g>
<g style="mix-blend-mode:screen" opacity="0.5">
<path d="M971.312 561.083H967.783V595.483H971.312V561.083Z" fill="#58C5F4"/>
</g>
<path d="M1501.43 630.406V498.331H1450.86V535.134H1427.58V471.296L1380.42 440.443V586.587H1362.12V550.017H1321.56V630.406L1276.9 634.863V698.274H1503L1501.43 630.406Z" fill="#58C5F4"/>
<g style="mix-blend-mode:screen" opacity="0.5">
<path d="M1413.48 486.47H1406.44V502.459H1413.48V486.47Z" fill="#58C5F4"/>
</g>
<g style="mix-blend-mode:screen" opacity="0.5">
<path d="M1399.4 486.47H1392.37V502.459H1399.4V486.47Z" fill="#58C5F4"/>
</g>
<g style="mix-blend-mode:screen" opacity="0.5">
<path d="M1413.48 513.583H1406.44V529.572H1413.48V513.583Z" fill="#58C5F4"/>
</g>
<g style="mix-blend-mode:screen" opacity="0.5">
<path d="M1399.4 513.583H1392.37V529.572H1399.4V513.583Z" fill="#58C5F4"/>
</g>
<g style="mix-blend-mode:screen" opacity="0.5">
<path d="M1413.48 540.696H1406.44V556.684H1413.48V540.696Z" fill="#58C5F4"/>
</g>
<g style="mix-blend-mode:screen" opacity="0.5">
<path d="M1399.4 540.696H1392.37V556.684H1399.4V540.696Z" fill="#58C5F4"/>
</g>
<g style="mix-blend-mode:screen" opacity="0.5">
<path d="M1413.48 567.828H1406.44V583.816H1413.48V567.828Z" fill="#58C5F4"/>
</g>
<g style="mix-blend-mode:screen" opacity="0.5">
<path d="M1399.4 567.828H1392.37V583.816H1399.4V567.828Z" fill="#58C5F4"/>
</g>
<g style="mix-blend-mode:screen" opacity="0.5">
<path d="M1350.62 561.083H1343.58V595.483H1350.62V561.083Z" fill="#58C5F4"/>
</g>
<g style="mix-blend-mode:screen" opacity="0.5">
<path d="M1336.66 561.083H1333.13V595.483H1336.66V561.083Z" fill="#58C5F4"/>
</g>
<path d="M1446.97 265.984C1446.79 267.656 1446.27 269.274 1445.45 270.741C1444.63 272.208 1443.52 273.494 1442.19 274.522C1440.86 275.55 1439.33 276.299 1437.7 276.723C1436.07 277.148 1434.38 277.239 1432.71 276.992C1437.43 281.178 1438.43 289.124 1436.13 294.996C1434.92 297.913 1432.87 300.405 1430.23 302.154C1427.6 303.904 1424.51 304.832 1421.35 304.822C1434.01 318.136 1445.3 334.357 1444.93 352.729C1444.56 371.101 1430.87 389.861 1412.53 391.063C1399.33 391.915 1387.11 384.066 1377.63 374.938C1354.35 352.554 1340.91 321.85 1340.27 289.57C1339.18 291.52 1337.62 293.164 1335.73 294.347C1333.84 295.53 1331.68 296.213 1329.45 296.333C1327.32 296.365 1325.23 295.826 1323.38 294.773C1321.54 293.72 1320.01 292.19 1318.96 290.345C1320.07 293.474 1320.45 296.818 1320.07 300.117C1319.68 303.417 1318.55 306.584 1316.75 309.376C1314.99 312.165 1312.42 314.352 1309.39 315.646C1306.35 316.941 1303 317.282 1299.76 316.624C1293.38 315.035 1288.6 308.097 1290.07 301.701C1286.93 311.081 1281.81 321.275 1274.91 328.388C1268 335.5 1256.51 339.163 1247.99 334.105C1242.64 330.946 1239.5 325.074 1237.29 319.279C1231.84 304.93 1230.38 289.372 1233.06 274.259C1225.38 276.91 1217.14 277.494 1209.16 275.954C1201.17 274.413 1193.74 270.801 1187.6 265.48C1199.68 277.293 1208.73 291.837 1214.01 307.884C1216.18 314.434 1217.71 321.45 1216.2 328.252C1214.68 335.054 1207.78 344.919 1200.92 345.694C1203.48 347.168 1205.67 349.215 1207.31 351.675C1208.95 354.136 1210 356.943 1210.37 359.876C1210.75 362.809 1210.44 365.789 1209.47 368.582C1208.49 371.375 1206.89 373.905 1204.78 375.974C1202.66 378.043 1200.1 379.595 1197.28 380.507C1194.47 381.42 1191.48 381.669 1188.56 381.234C1185.63 380.8 1182.84 379.694 1180.42 378.003C1177.99 376.312 1175.99 374.083 1174.57 371.489C1168.11 384.783 1156.75 396.392 1142.79 401.334C1135.81 403.854 1128.34 404.703 1120.98 403.815C1113.61 402.926 1106.56 400.324 1100.39 396.218C1091.55 389.962 1085.51 380.493 1083.57 369.841C1082.84 365.835 1082.8 361.732 1083.44 357.71C1085.8 343.116 1098.21 330.442 1112.91 328.736C1104.22 324.318 1099.47 314.957 1099.34 305.209C1099.28 300.307 1100.56 295.481 1103.05 291.255C1105.53 287.028 1109.13 283.562 1113.44 281.23C1117.76 278.899 1122.63 277.792 1127.53 278.029C1132.43 278.265 1137.17 279.837 1141.24 282.573C1140.16 280.881 1139.59 278.918 1139.59 276.914C1139.59 274.91 1140.16 272.948 1141.24 271.255C1142.36 269.537 1143.94 268.163 1145.8 267.285C1147.66 266.406 1149.72 266.056 1151.77 266.275C1138.95 252.806 1126.21 239.143 1120.07 221.701C1113.92 204.259 1112.89 184.433 1119.5 167.049C1126.11 149.665 1140.83 135.053 1159.02 130.809C1177.2 126.564 1197.97 133.967 1207.63 149.859C1205.11 137.94 1214.86 123.425 1226.51 119.82C1232.4 118.192 1238.69 118.723 1244.22 121.317C1249.76 123.911 1254.18 128.398 1256.7 133.968C1260.81 124.878 1272.81 117.746 1282.8 118.095C1287.8 118.391 1292.65 119.908 1296.92 122.513C1301.2 125.118 1304.77 128.732 1307.33 133.037C1309.81 137.379 1311.4 142.176 1312 147.143C1312.59 152.11 1312.18 157.146 1310.8 161.952C1314.19 156.623 1323.32 156.003 1328.48 159.646C1333.64 163.289 1335.92 169.995 1335.85 176.313C1335.77 182.631 1333.64 188.716 1331.54 194.666C1335.63 191.429 1342.46 193.154 1346.34 196.604C1350.21 200.053 1352.15 205.247 1353.57 210.267C1358.8 196.817 1363.53 183.348 1372.61 172.107C1381.68 160.867 1395.2 152.301 1409.64 152.727C1415.38 152.95 1420.98 154.566 1425.95 157.437C1438.36 164.472 1447.28 178.445 1449.56 192.902C1452.7 213.154 1445.38 233.6 1435.58 251.604C1442.29 251.061 1447.31 259.201 1446.97 265.984Z" fill="#00AAB2"/>
<path d="M106.635 295.907L95.1957 388.504L106.092 422.691H110.649H115.128L125.036 388.214L110.882 295.965C110.819 295.451 110.569 294.979 110.179 294.639C109.788 294.299 109.286 294.115 108.768 294.124C108.258 294.117 107.762 294.293 107.371 294.62C106.98 294.947 106.719 295.404 106.635 295.907Z" fill="#016E8D"/>
<path d="M5.23026 495.463L89.5729 455.404L112.568 427.904L110.087 424.028L107.527 420.288L73.0921 430.443L2.82601 491.858C2.42139 492.183 2.15175 492.646 2.06936 493.158C1.98697 493.67 2.09769 494.194 2.38006 494.629C2.65365 495.111 3.10419 495.468 3.63622 495.623C4.16826 495.779 4.73998 495.721 5.23026 495.463Z" fill="#016E8D"/>
<path d="M214.904 493.079L131.007 452.148L108.303 424.396L110.843 420.52L113.344 416.799L147.663 427.323L217.289 489.494C217.684 489.826 217.943 490.292 218.018 490.802C218.093 491.313 217.979 491.833 217.696 492.265C217.42 492.729 216.979 493.07 216.46 493.222C215.942 493.373 215.386 493.322 214.904 493.079Z" fill="#016E8D"/>
<path d="M104.289 690.542L140.45 689.224L138.744 670.697L116.524 429.105L109.078 429.396L108.904 439.532L104.289 690.542Z" fill="#233C65"/>
<path d="M126.393 416.082C127.803 418.914 128.339 422.1 127.935 425.237C127.53 428.374 126.203 431.32 124.122 433.702C122.04 436.084 119.297 437.795 116.242 438.617C113.186 439.439 109.955 439.335 106.959 438.32C103.962 437.304 101.334 435.422 99.4093 432.912C97.4843 430.401 96.3483 427.376 96.1454 424.22C95.9426 421.064 96.682 417.918 98.2699 415.183C99.8578 412.447 102.223 410.244 105.065 408.854C108.854 406.994 113.225 406.711 117.222 408.065C121.22 409.42 124.517 412.303 126.393 416.082Z" fill="#00AAB2"/>
<path d="M112.084 435.152C118.701 435.152 124.066 429.79 124.066 423.175C124.066 416.56 118.701 411.198 112.084 411.198C105.466 411.198 100.101 416.56 100.101 423.175C100.101 429.79 105.466 435.152 112.084 435.152Z" fill="#016E8D"/>
<path d="M303.357 210.673L289.785 312.515L301.418 350.268H306.518H311.442L322.688 312.399L308.204 210.635C308.13 210.055 307.847 209.522 307.408 209.136C306.969 208.749 306.404 208.536 305.82 208.536C305.235 208.536 304.67 208.749 304.231 209.136C303.792 209.522 303.509 210.055 303.435 210.635L303.357 210.673Z" fill="#016E8D"/>
<path d="M189.815 429.396L283.057 386.159L308.67 356.062L305.955 351.837L303.28 347.69L265.238 358.504L187.236 425.423C186.789 425.782 186.491 426.293 186.398 426.858C186.305 427.423 186.424 428.002 186.732 428.485C187.036 428.997 187.523 429.376 188.095 429.545C188.666 429.713 189.28 429.66 189.815 429.396Z" fill="#016E8D"/>
<path d="M420.7 428.834L328.738 382.942L304.016 352.128L306.828 347.981L309.6 343.911L347.293 355.83L423.337 424.978C423.728 425.377 423.967 425.901 424.013 426.457C424.06 427.014 423.911 427.57 423.592 428.029C423.273 428.488 422.804 428.821 422.265 428.972C421.727 429.122 421.153 429.08 420.642 428.854L420.7 428.834Z" fill="#016E8D"/>
<path d="M296.959 645.173L336.765 644.069L335.078 623.642L312.994 357.438L304.811 357.671L304.501 368.834L296.959 645.173Z" fill="#233C65"/>
<path d="M324.007 343.194C325.519 346.324 326.068 349.832 325.586 353.274C325.104 356.716 323.612 359.938 321.298 362.533C318.984 365.128 315.953 366.978 312.587 367.851C309.221 368.724 305.671 368.58 302.387 367.437C299.103 366.294 296.232 364.204 294.136 361.43C292.041 358.657 290.815 355.324 290.614 351.854C290.412 348.384 291.245 344.933 293.006 341.936C294.767 338.938 297.377 336.53 300.507 335.016C302.587 334.009 304.845 333.422 307.152 333.289C309.459 333.155 311.77 333.477 313.953 334.237C316.135 334.996 318.146 336.178 319.872 337.715C321.597 339.252 323.002 341.114 324.007 343.194Z" fill="#00AAB2"/>
<path d="M308.185 364.028C315.467 364.028 321.37 358.128 321.37 350.849C321.37 343.571 315.467 337.671 308.185 337.671C300.903 337.671 295 343.571 295 350.849C295 358.128 300.903 364.028 308.185 364.028Z" fill="#016E8D"/>
<path d="M1225.6 699.689H1029.61L1034.17 675.212L1071.55 475.113V401.935H1183.7V475.113L1225.6 699.689Z" fill="#016E8D"/>
<g style="mix-blend-mode:screen" opacity="0.5">
<path d="M1183.68 421.082H1071.53V431.528H1183.68V421.082Z" fill="#016E8D"/>
</g>
<g style="mix-blend-mode:screen" opacity="0.5">
<path d="M1183.68 440.501H1071.53V450.947H1183.68V440.501Z" fill="#016E8D"/>
</g>
<g style="mix-blend-mode:screen" opacity="0.5">
<path d="M1183.68 459.92H1071.53V470.366H1183.68V459.92Z" fill="#016E8D"/>
</g>
<g style="mix-blend-mode:multiply" opacity="0.2">
<path d="M1225.6 699.689H1029.6L1034.17 675.212C1068.68 672.828 1100.6 649.068 1118.51 618.816C1138.76 584.63 1143.99 543.622 1144.44 503.893C1144.61 485.346 1143.84 466.761 1143.41 448.175C1143.1 436.683 1139.98 417.439 1142.44 401.935H1183.62V475.113L1225.6 699.689Z" fill="#3056B9"/>
</g>
<path d="M1184.46 388.64H1070.76C1068.16 388.754 1065.7 389.867 1063.9 391.746C1062.1 393.625 1061.1 396.126 1061.1 398.727C1061.1 401.329 1062.1 403.83 1063.9 405.709C1065.7 407.588 1068.16 408.701 1070.76 408.815H1184.46C1187.06 408.701 1189.51 407.588 1191.31 405.709C1193.11 403.83 1194.12 401.329 1194.12 398.727C1194.12 396.126 1193.11 393.625 1191.31 391.746C1189.51 389.867 1187.06 388.754 1184.46 388.64Z" fill="white"/>
<path d="M1410.11 699.689H1214.1L1218.68 675.212L1256.04 475.113V401.935H1368.19V475.113L1410.11 699.689Z" fill="#016E8D"/>
<g style="mix-blend-mode:screen" opacity="0.5">
<path d="M1368.19 421.082H1256.04V431.528H1368.19V421.082Z" fill="#016E8D"/>
</g>
<g style="mix-blend-mode:screen" opacity="0.5">
<path d="M1368.19 440.501H1256.04V450.947H1368.19V440.501Z" fill="#016E8D"/>
</g>
<g style="mix-blend-mode:screen" opacity="0.5">
<path d="M1368.19 459.92H1256.04V470.366H1368.19V459.92Z" fill="#016E8D"/>
</g>
<g style="mix-blend-mode:multiply" opacity="0.2">
<path d="M1410.09 699.689H1214.1L1218.66 675.212C1253.17 672.828 1285.11 649.068 1303 618.816C1323.26 584.63 1328.48 543.622 1328.92 503.893C1329.12 485.346 1328.34 466.761 1327.9 448.175C1327.61 436.683 1324.47 417.439 1326.95 401.935H1368.19V475.113L1410.09 699.689Z" fill="#3056B9"/>
</g>
<path d="M1368.94 388.64H1255.25C1252.65 388.754 1250.19 389.867 1248.39 391.746C1246.59 393.625 1245.59 396.126 1245.59 398.727C1245.59 401.329 1246.59 403.83 1248.39 405.709C1250.19 407.588 1252.65 408.701 1255.25 408.815H1368.94C1370.31 408.874 1371.67 408.658 1372.94 408.178C1374.22 407.698 1375.39 406.964 1376.37 406.022C1377.36 405.079 1378.14 403.947 1378.68 402.693C1379.21 401.44 1379.49 400.091 1379.49 398.727C1379.49 397.364 1379.21 396.015 1378.68 394.761C1378.14 393.508 1377.36 392.376 1376.37 391.433C1375.39 390.49 1374.22 389.757 1372.94 389.277C1371.67 388.797 1370.31 388.58 1368.94 388.64Z" fill="white"/>
<path d="M1468.47 682.15C1464.34 688.274 1456.83 693.429 1450.49 697.092C1447.64 696.608 1444.81 696.162 1441.96 695.736C1416.4 691.843 1390.61 689.628 1364.76 689.108H1359.89C1354.35 683.58 1348 678.921 1341.06 675.29C1337.38 673.642 1333.93 671.532 1330.79 669.011C1327.82 666.259 1325.78 662.073 1326.91 658.197C1327.54 656.414 1328.64 654.839 1330.11 653.643C1331.57 652.447 1333.33 651.675 1335.21 651.414C1338.97 650.93 1342.8 651.424 1346.32 652.848C1356.64 656.429 1365.69 662.958 1372.34 671.627C1367 664.282 1362.06 656.627 1356.65 649.32C1354.68 646.908 1353.08 644.217 1351.9 641.336C1351.32 639.887 1351.06 638.328 1351.16 636.769C1351.25 635.211 1351.69 633.692 1352.44 632.324C1354.75 628.661 1359.68 627.557 1364.08 628.002C1372.72 628.894 1380.29 634.63 1385.41 641.568C1390.52 648.507 1393.59 656.898 1396.53 665.057C1396.34 661.925 1396.78 658.787 1397.82 655.827C1398.86 652.868 1400.49 650.148 1402.6 647.828C1403.35 646.864 1404.29 646.067 1405.36 645.486C1406.43 644.905 1407.61 644.555 1408.83 644.456C1411.75 644.456 1414.08 646.917 1415.59 649.417C1418.77 654.677 1419.85 660.935 1418.64 666.956C1421.86 655.723 1428.67 645.853 1438.03 638.855C1440.16 637.107 1442.61 635.79 1445.24 634.979C1446.54 634.615 1447.91 634.535 1449.25 634.746C1450.59 634.957 1451.87 635.453 1453 636.2C1456.37 638.681 1456.97 643.429 1456.87 647.615C1456.53 657.988 1453.47 668.091 1448.01 676.918C1452.72 673.254 1458.53 671.305 1464.49 671.394C1466.32 671.227 1468.14 671.784 1469.55 672.945C1471.8 675.328 1470.33 679.34 1468.47 682.15Z" fill="#8FB838"/>
<path d="M89.4372 652.344C87.0717 659.321 81.255 666.239 76.0393 671.453C73.1697 671.743 70.2226 672.053 67.4499 672.402C41.7561 675.357 16.2828 679.985 -8.80742 686.259L-13.5384 687.46C-20.3325 683.588 -27.6735 680.766 -35.3123 679.088C-39.3169 678.459 -43.2258 677.326 -46.9458 675.716C-50.5134 673.778 -53.5769 670.348 -53.5381 666.317C-53.3992 664.428 -52.7433 662.613 -51.6422 661.072C-50.5411 659.53 -49.0371 658.321 -47.2948 657.576C-43.79 656.126 -39.9713 655.599 -36.2042 656.045C-25.3036 656.798 -14.8623 660.726 -6.1705 667.344C-13.2475 661.646 -20.0143 655.561 -27.1689 649.902C-29.7051 648.093 -31.9593 645.918 -33.8581 643.448C-34.8112 642.208 -35.4791 640.773 -35.8142 639.246C-36.1493 637.719 -36.1435 636.136 -35.7971 634.611C-34.5174 630.464 -29.9803 628.099 -25.7729 627.402C-17.2029 625.987 -8.32269 629.534 -1.61406 634.96C5.09457 640.386 10.2909 647.615 15.2932 654.708C14.2797 651.739 13.8724 648.597 14.0955 645.468C14.3187 642.339 15.1677 639.286 16.5923 636.491C17.0672 635.368 17.7685 634.355 18.6526 633.514C19.5366 632.674 20.5843 632.025 21.7304 631.607C24.5612 630.91 27.5472 632.596 29.4861 634.611C33.9308 638.853 36.6222 644.606 37.0284 650.735C37.1745 639.059 41.145 627.751 48.3323 618.545C49.9242 616.319 51.9405 614.428 54.2653 612.983C55.4375 612.272 56.7503 611.824 58.1129 611.67C59.4755 611.516 60.8553 611.66 62.1567 612.092C66.0345 613.584 67.9734 618.022 68.8653 622.092C71.268 632.19 70.9805 642.74 68.0316 652.693C71.5961 647.906 76.6945 644.486 82.4765 643.003C84.196 642.368 86.0958 642.43 87.7697 643.177C90.8914 644.921 90.523 649.204 89.4372 652.344Z" fill="#8FB838"/>
<path d="M1270.87 655.658C1270.01 658.672 1268.29 661.367 1265.91 663.41C1261.43 667.809 1254.55 670.077 1248.94 672.887C1246.83 672.499 1244.74 672.15 1242.62 671.821C1236.03 670.794 1229.4 670.018 1222.75 669.553C1220.81 669.418 1218.74 669.282 1216.72 669.205C1209.16 664.553 1201.21 659.34 1193.7 654.708C1192.31 653.956 1191.03 652.995 1189.92 651.859C1189.38 651.281 1188.97 650.587 1188.73 649.829C1188.48 649.071 1188.42 648.267 1188.53 647.479C1189.11 644.728 1192.41 643.468 1195.08 643.138C1199.17 642.698 1203.3 643.243 1207.13 644.726C1210.96 646.21 1214.38 648.589 1217.11 651.666C1211.95 645.486 1207.88 638.474 1205.07 630.929C1203.9 628.265 1203.24 625.405 1203.13 622.499C1203.08 621.039 1203.36 619.587 1203.94 618.247C1204.52 616.906 1205.38 615.711 1206.48 614.747C1210.52 611.588 1216.58 613.293 1220.66 616.355C1228.97 622.596 1232.75 633.041 1236.17 642.906C1237.74 633.216 1240.26 623.235 1246.97 616.123C1249.91 613.022 1254.22 610.464 1258.33 611.685C1259.63 612.113 1260.83 612.818 1261.83 613.751C1262.83 614.685 1263.62 615.824 1264.15 617.092C1265.15 619.625 1265.63 622.334 1265.56 625.057C1265.69 634.702 1263 644.175 1257.81 652.305C1259.01 650.818 1260.46 649.547 1262.09 648.545C1262.9 648.063 1263.79 647.757 1264.73 647.647C1265.66 647.536 1266.6 647.625 1267.5 647.906C1268.86 648.617 1269.94 649.775 1270.56 651.186C1271.17 652.596 1271.28 654.175 1270.87 655.658Z" fill="#8FB838"/>
<path d="M262.485 644.572C261.82 647.617 260.276 650.4 258.045 652.576C253.896 657.286 247.206 660.018 241.797 663.216C239.664 662.983 237.531 662.77 235.398 662.596C228.767 662.014 222.097 661.704 215.428 661.704C213.411 661.704 211.395 661.704 209.378 661.704C201.623 657.596 193.285 652.945 185.433 648.855C183.987 648.19 182.648 647.315 181.458 646.258C180.871 645.722 180.415 645.06 180.122 644.321C179.83 643.582 179.71 642.787 179.771 641.995C180.159 639.204 183.242 637.731 186.014 637.208C190.057 636.486 194.214 636.743 198.138 637.957C202.061 639.171 205.636 641.306 208.564 644.185C202.98 638.381 198.435 631.662 195.127 624.32C193.79 621.748 192.948 618.947 192.645 616.064C192.515 614.62 192.701 613.165 193.19 611.799C193.679 610.434 194.459 609.191 195.476 608.157C199.354 604.727 205.442 605.987 209.727 608.778C218.452 614.437 222.951 624.592 226.964 634.185C227.856 624.495 229.679 614.281 235.883 606.723C238.598 603.429 242.727 600.58 246.916 601.51C248.223 601.875 249.438 602.515 250.478 603.387C251.518 604.259 252.359 605.344 252.946 606.568C254.103 609.031 254.762 611.699 254.884 614.417C255.709 624.025 253.686 633.664 249.068 642.131C250.173 640.574 251.529 639.212 253.081 638.099C254.085 637.313 255.314 636.867 256.59 636.827C257.865 636.787 259.12 637.155 260.171 637.877C261.223 638.599 262.016 639.638 262.436 640.842C262.855 642.047 262.879 643.353 262.504 644.572H262.485Z" fill="#8FB838"/>
</g>
<path d="M171.899 307.07C177.716 298.891 186.809 297.38 195.166 302.418C186.693 299.279 178.879 303.174 174.749 311.682C174.226 312.767 173.101 312.69 172.248 311.488C171.823 310.899 171.548 310.215 171.447 309.496C171.346 308.777 171.421 308.044 171.666 307.36C171.666 307.263 171.666 307.186 171.802 307.108L171.899 307.07Z" fill="#004356"/>
<path d="M175.389 307.07C169.572 298.891 160.479 297.38 152.122 302.418C160.595 299.279 168.409 303.174 172.539 311.682C173.062 312.767 174.187 312.69 175.04 311.488C175.465 310.899 175.74 310.215 175.841 309.496C175.942 308.777 175.867 308.044 175.622 307.36C175.622 307.263 175.622 307.186 175.486 307.108L175.389 307.07Z" fill="#004356"/>
<path d="M68.3806 263.542C74.1973 255.363 83.2908 253.852 91.6475 258.891C83.1745 255.751 75.3607 259.646 71.2308 268.154C70.7073 269.24 69.5827 269.162 68.7296 267.96C68.3049 267.371 68.0301 266.687 67.9287 265.968C67.8274 265.249 67.9026 264.516 68.1479 263.833C68.1479 263.736 68.2449 263.658 68.2836 263.581L68.3806 263.542Z" fill="#004356"/>
<path d="M71.8512 263.542C66.0345 255.363 56.941 253.852 48.5843 258.891C57.0573 255.751 64.8711 259.646 69.001 268.154C69.5245 269.24 70.6491 269.162 71.5022 267.96C71.9224 267.369 72.1945 266.686 72.2957 265.967C72.3969 265.249 72.3243 264.517 72.0839 263.833C72.0839 263.736 72.0839 263.658 71.9482 263.581L71.8512 263.542Z" fill="#004356"/>
<path d="M201.08 135.169C206.896 126.991 215.97 125.479 224.347 130.498C215.893 127.359 208.079 131.254 203.949 139.762C203.406 140.867 202.301 140.77 201.448 139.588C201.026 138.994 200.751 138.308 200.647 137.586C200.542 136.865 200.611 136.13 200.847 135.44L201.002 135.188L201.08 135.169Z" fill="#004356"/>
<path d="M204.473 135.169C198.656 126.991 189.582 125.479 181.206 130.498C189.659 127.359 197.493 131.254 201.603 139.762C202.146 140.867 203.251 140.77 204.104 139.588C204.531 138.996 204.808 138.309 204.913 137.587C205.018 136.865 204.946 136.129 204.705 135.44L204.55 135.188L204.473 135.169Z" fill="#004356"/>
<path d="M1345.33 168.309C1351.14 160.13 1360.24 158.619 1368.59 163.638C1360.12 160.518 1352.31 164.394 1348.18 172.921C1347.65 174.006 1346.53 173.909 1345.68 172.727C1345.26 172.136 1344.98 171.452 1344.88 170.734C1344.78 170.016 1344.85 169.284 1345.1 168.599L1345.23 168.328L1345.33 168.309Z" fill="#004356"/>
<path d="M1348.8 168.309C1342.98 160.13 1333.89 158.619 1325.53 163.638C1334 160.518 1341.82 164.394 1345.95 172.921C1346.47 174.006 1347.6 173.909 1348.45 172.727C1348.87 172.137 1349.15 171.454 1349.25 170.735C1349.35 170.016 1349.27 169.283 1349.03 168.599L1348.9 168.328L1348.8 168.309Z" fill="#004356"/>
<path d="M1142.91 313.484C1148.72 305.306 1157.82 303.794 1166.17 308.833C1157.72 305.693 1149.9 309.589 1145.78 318.097C1145.25 319.182 1144.13 319.104 1143.27 317.903C1142.85 317.312 1142.58 316.63 1142.47 315.912C1142.37 315.194 1142.44 314.461 1142.67 313.775L1142.83 313.523L1142.91 313.484Z" fill="#004356"/>
<path d="M1146.41 313.484C1140.6 305.306 1131.52 303.794 1123.15 308.833C1131.62 305.693 1139.43 309.589 1143.56 318.097C1144.09 319.182 1145.21 319.104 1146.07 317.903C1146.49 317.311 1146.76 316.628 1146.86 315.91C1146.96 315.191 1146.89 314.459 1146.65 313.775C1146.61 313.684 1146.56 313.6 1146.49 313.523L1146.41 313.484Z" fill="#004356"/>
<path d="M1204.95 105.828C1210.77 97.6493 1219.86 96.1377 1228.22 101.157C1219.76 98.0175 1211.95 101.913 1207.82 110.421C1207.3 111.525 1206.17 111.428 1205.32 110.246C1204.9 109.656 1204.62 108.973 1204.52 108.254C1204.42 107.535 1204.49 106.802 1204.74 106.118C1204.77 106.022 1204.82 105.931 1204.87 105.847L1204.95 105.828Z" fill="#004356"/>
<path d="M1208.48 105.828C1202.66 97.6493 1193.59 96.1377 1185.21 101.157C1193.69 98.0175 1201.5 101.913 1205.63 110.421C1206.15 111.525 1207.28 111.428 1208.13 110.246C1208.55 109.655 1208.82 108.971 1208.92 108.253C1209.03 107.535 1208.95 106.803 1208.71 106.118C1208.67 106.022 1208.62 105.931 1208.56 105.847L1208.48 105.828Z" fill="#004356"/>
<path d="M1435.68 701.046V827.5H-18.502C-18.502 788.605 -17.0091 744.651 -16.3498 703.584C-16.1947 692.363 -16.0784 681.336 -16.0784 670.638C465.454 597.479 955.683 603.043 1435.43 687.111C1435.43 692.344 1435.68 695.871 1435.68 701.046Z" fill="#00AAB2"/>
<g style="mix-blend-mode:screen" opacity="0.35">
<path d="M86.8584 689.069C121.235 698.759 153.557 715.019 187.139 727.402C220.721 739.786 261.05 759.147 294.05 745.174C374.942 710.968 411.859 719.98 470.705 734.573C529.55 749.166 588.552 770.833 648.832 765.581C721.328 759.321 786.146 714.902 858.06 703.468C933.232 691.511 1008.69 716.375 1081.89 737.868C1155.08 759.36 1233.8 777.597 1306.08 753.062C1331.56 744.418 1355.35 730.678 1381.24 723.468C1398.88 718.585 1418.41 717.247 1435.68 722.422V701.104C1435.68 695.929 1435.43 692.402 1435.43 687.228C955.682 603.159 465.454 597.595 -16.0784 670.755C-16.0784 677.092 -16.0784 683.604 -16.1947 690.135C16.2239 676.666 53.1214 679.514 86.8584 689.069Z" fill="#00AAB2"/>
</g>
<path d="M658.992 694.572C660.679 693.477 662.135 692.061 663.277 690.406C664.403 688.771 665.224 686.945 665.701 685.018C666.148 683.113 666.234 681.141 665.953 679.204C665.696 677.348 665.07 675.562 664.111 673.952C664.517 675.691 664.667 677.48 664.557 679.262C664.443 680.969 664.05 682.645 663.393 684.224C662.764 685.764 661.886 687.191 660.795 688.448C659.739 689.679 658.503 690.743 657.131 691.607C656.745 691.864 656.477 692.264 656.386 692.718C656.296 693.173 656.389 693.644 656.646 694.03C656.903 694.415 657.303 694.683 657.758 694.774C658.212 694.865 658.684 694.771 659.07 694.514L658.992 694.572Z" fill="#016E8D"/>
<path d="M655.289 694.03C657.401 689.575 658.421 684.68 658.262 679.753C658.104 674.825 656.772 670.007 654.378 665.696C656.071 669.978 656.715 674.603 656.256 679.185C655.797 683.766 654.249 688.172 651.741 692.034C651.592 692.256 651.488 692.506 651.436 692.769C651.383 693.032 651.383 693.302 651.436 693.565C651.488 693.828 651.591 694.077 651.74 694.3C651.889 694.523 652.08 694.714 652.303 694.863C652.526 695.012 652.776 695.116 653.039 695.168C653.301 695.22 653.572 695.22 653.835 695.168C654.098 695.116 654.348 695.013 654.571 694.864C654.793 694.715 654.985 694.524 655.134 694.301L655.269 694.069L655.289 694.03Z" fill="#016E8D"/>
<path d="M650.422 693.778C650.885 692.247 651.082 690.647 651.004 689.049C650.918 687.477 650.611 685.924 650.093 684.437C649.555 682.976 648.81 681.599 647.882 680.348C646.974 679.122 645.851 678.072 644.567 677.247C645.478 678.386 646.252 679.629 646.874 680.949C647.493 682.224 647.949 683.572 648.231 684.96C648.524 686.316 648.654 687.702 648.619 689.088C648.591 690.447 648.415 691.798 648.095 693.119C648.019 693.433 648.07 693.764 648.237 694.04C648.405 694.316 648.674 694.514 648.987 694.592C649.285 694.66 649.597 694.615 649.863 694.464C650.129 694.313 650.328 694.069 650.422 693.778Z" fill="#016E8D"/>
<path d="M494.417 693.216C493.351 690.709 492.797 688.014 492.789 685.29C492.763 682.605 493.229 679.938 494.165 677.421C495.108 674.973 496.495 672.719 498.256 670.774C499.965 668.889 502.036 667.367 504.345 666.297C502.547 667.922 501.016 669.818 499.808 671.918C497.482 675.874 496.503 680.478 497.016 685.038C497.261 687.228 497.829 689.37 498.702 691.394C498.944 691.962 498.95 692.603 498.719 693.176C498.488 693.748 498.039 694.205 497.471 694.447C496.903 694.688 496.262 694.694 495.689 694.464C495.117 694.233 494.659 693.784 494.417 693.216Z" fill="#016E8D"/>
<path d="M487.088 692.208C484.216 686.178 482.828 679.549 483.041 672.874C483.253 666.199 485.06 659.671 488.31 653.836C486.016 659.634 485.145 665.897 485.769 672.101C486.393 678.305 488.494 684.269 491.897 689.495C492.292 690.104 492.433 690.844 492.288 691.556C492.143 692.268 491.725 692.894 491.122 693.301C490.52 693.707 489.782 693.861 489.068 693.729C488.353 693.597 487.719 693.19 487.302 692.596C487.23 692.484 487.165 692.367 487.108 692.247L487.088 692.208Z" fill="#016E8D"/>
<path d="M483.172 694.728C481.709 693.13 480.529 691.295 479.682 689.301C478.853 687.333 478.305 685.259 478.053 683.139C477.848 681.042 477.946 678.928 478.344 676.859C478.72 674.806 479.462 672.837 480.535 671.045C480.107 672.953 479.898 674.904 479.914 676.859C479.913 678.776 480.161 680.685 480.651 682.538C481.076 684.362 481.727 686.127 482.59 687.79C483.429 689.436 484.45 690.984 485.634 692.402C485.774 692.567 485.88 692.759 485.944 692.965C486.008 693.172 486.03 693.389 486.009 693.605C485.987 693.82 485.922 694.029 485.818 694.218C485.713 694.408 485.572 694.575 485.402 694.708C485.1 694.99 484.703 695.149 484.29 695.152C483.878 695.156 483.478 695.004 483.172 694.728Z" fill="#016E8D"/>
<path d="M848.191 682.499C848.693 680.176 848.856 677.794 848.676 675.425C848.502 673.002 847.925 670.624 846.97 668.39C846.011 666.075 844.667 663.939 842.995 662.072C841.273 660.103 839.259 658.41 837.023 657.053C839.687 657.713 842.192 658.899 844.391 660.541C846.692 662.236 848.664 664.338 850.208 666.743C851.709 669.224 852.754 671.955 853.29 674.805C853.83 677.703 853.797 680.679 853.193 683.565C853.127 683.889 852.996 684.197 852.809 684.47C852.623 684.743 852.384 684.977 852.106 685.157C851.828 685.338 851.517 685.461 851.191 685.52C850.865 685.58 850.531 685.574 850.208 685.503C849.877 685.44 849.561 685.312 849.28 685.127C848.999 684.942 848.758 684.702 848.57 684.423C848.383 684.143 848.252 683.829 848.187 683.499C848.122 683.168 848.124 682.828 848.191 682.499Z" fill="#016E8D"/>
<path d="M858.002 681.84C854.895 675.323 853.393 668.158 853.623 660.943C853.852 653.728 855.806 646.673 859.32 640.367C856.847 646.636 855.909 653.405 856.583 660.11C857.258 666.815 859.526 673.262 863.198 678.913C863.64 679.571 863.803 680.378 863.65 681.156C863.498 681.934 863.042 682.619 862.384 683.061C861.726 683.503 860.919 683.665 860.141 683.513C859.363 683.36 858.677 682.905 858.235 682.247L858.021 681.879L858.002 681.84Z" fill="#016E8D"/>
<path d="M864.808 681.453C863.906 679.298 863.388 677.002 863.276 674.67C863.17 672.356 863.398 670.038 863.954 667.79C864.522 665.585 865.411 663.476 866.591 661.53C867.746 659.63 869.223 657.945 870.954 656.549C869.794 658.374 868.844 660.325 868.123 662.363C866.761 666.24 866.291 670.373 866.747 674.456C866.979 676.439 867.434 678.39 868.104 680.27C868.252 680.715 868.219 681.2 868.013 681.621C867.806 682.042 867.441 682.364 866.999 682.519C866.566 682.662 866.095 682.63 865.686 682.431C865.277 682.232 864.962 681.881 864.808 681.453Z" fill="#016E8D"/>
<path d="M1042.95 690.716C1044.43 688.86 1045.63 686.797 1046.5 684.592C1047.42 682.337 1047.95 679.947 1048.07 677.518C1048.23 675.018 1047.97 672.51 1047.3 670.096C1046.61 667.566 1045.55 665.155 1044.14 662.944C1046.24 664.719 1047.96 666.893 1049.22 669.34C1050.51 671.864 1051.32 674.603 1051.62 677.421C1051.89 680.313 1051.62 683.228 1050.85 686.026C1050.07 688.838 1048.76 691.472 1046.97 693.778C1046.52 694.18 1045.95 694.41 1045.35 694.427C1044.75 694.444 1044.17 694.247 1043.7 693.871C1043.23 693.495 1042.91 692.965 1042.8 692.376C1042.69 691.787 1042.79 691.178 1043.09 690.658L1042.95 690.716Z" fill="#016E8D"/>
<path d="M1052.13 694.476C1052.2 687.265 1054 680.177 1057.37 673.802C1060.75 667.427 1065.6 661.951 1071.51 657.828C1066.52 662.357 1062.68 668.016 1060.32 674.33C1057.96 680.645 1057.14 687.433 1057.94 694.127C1058.05 694.913 1057.84 695.71 1057.36 696.343C1056.88 696.975 1056.17 697.391 1055.38 697.499C1054.6 697.607 1053.8 697.398 1053.17 696.918C1052.53 696.439 1052.12 695.727 1052.01 694.941C1052 694.805 1052 694.669 1052.01 694.534L1052.13 694.476Z" fill="#016E8D"/>
<path d="M1058.39 697.131C1058.55 694.801 1059.1 692.514 1060.02 690.367C1061.82 686.119 1064.87 682.518 1068.76 680.038C1070.64 678.828 1072.72 677.962 1074.91 677.479C1073.07 678.57 1071.37 679.871 1069.83 681.355C1068.35 682.795 1067.04 684.409 1065.95 686.162C1064.84 687.861 1063.94 689.69 1063.27 691.608C1062.61 693.488 1062.16 695.439 1061.94 697.422C1061.9 697.889 1061.67 698.321 1061.31 698.623C1060.95 698.925 1060.49 699.071 1060.02 699.03C1059.55 698.989 1059.12 698.764 1058.81 698.404C1058.51 698.044 1058.37 697.579 1058.41 697.111L1058.39 697.131Z" fill="#016E8D"/>
<path d="M1160.2 626.936L1158.26 627.15C1157.99 624.766 1149.44 608.932 1140.81 606.084C1139.41 605.564 1137.88 605.498 1136.43 605.894C1134.99 606.291 1133.71 607.13 1132.77 608.293C1124.64 616.917 1133.09 637.925 1133.19 638.138L1131.41 638.875C1131.08 638.061 1124.31 621.277 1128.89 610.812C1129.48 609.383 1130.32 608.071 1131.37 606.936C1132.56 605.498 1134.17 604.465 1135.97 603.979C1137.77 603.493 1139.68 603.578 1141.43 604.223C1141.88 604.364 1142.31 604.539 1142.73 604.746H1142.87C1151.71 609.01 1159.85 623.777 1160.2 626.936Z" fill="#73323B"/>
<g style="mix-blend-mode:soft-light" opacity="0.6">
<path d="M1142.91 604.785C1141.86 604.339 1135.42 602.072 1129.06 610.812C1129.65 609.383 1130.49 608.071 1131.54 606.936C1132.73 605.498 1134.34 604.465 1136.14 603.979C1137.95 603.493 1139.85 603.578 1141.61 604.223C1142.05 604.376 1142.49 604.564 1142.91 604.785Z" fill="#CFE4FD"/>
</g>
<path d="M1115.18 640.871L1116.34 634.456L1161.62 615.153L1167.72 618.448L1115.18 640.871Z" fill="#EDAD5A"/>
<path d="M1115.18 640.871L1116.34 634.456L1161.62 615.153L1167.72 618.448L1115.18 640.871Z" fill="#73323B"/>
<path d="M1204.91 682.848L1133.95 713.12L1130.71 700.658L1128.56 692.383L1122.43 668.778L1115.18 640.871L1167.72 618.448L1198.49 671.724L1204.91 682.848Z" fill="#EDAD5A"/>
<path d="M1130.46 644.282C1131.69 644.282 1132.69 643.284 1132.69 642.053C1132.69 640.822 1131.69 639.824 1130.46 639.824C1129.23 639.824 1128.23 640.822 1128.23 642.053C1128.23 643.284 1129.23 644.282 1130.46 644.282Z" fill="#73323B"/>
<path d="M1157.31 632.828C1158.54 632.828 1159.54 631.83 1159.54 630.599C1159.54 629.368 1158.54 628.371 1157.31 628.371C1156.08 628.371 1155.08 629.368 1155.08 630.599C1155.08 631.83 1156.08 632.828 1157.31 632.828Z" fill="#73323B"/>
<path d="M1204.95 682.848L1133.95 713.158L1130.71 700.697L1128.56 692.422C1144.73 688.991 1172.38 681.239 1177.79 667.538C1184.51 650.522 1168.62 626.026 1164.35 619.921L1167.72 618.487L1198.49 671.762L1204.95 682.848Z" fill="#D38A3C"/>
<g style="mix-blend-mode:screen" opacity="0.35">
<path d="M1151.42 625.405C1151.42 625.405 1125.65 637.285 1122.7 642.847C1120.88 646.316 1121.6 659.185 1122.43 668.681L1115.18 640.774L1151.42 625.405Z" fill="#EDAD5A"/>
</g>
<path d="M1158.26 630.503L1156.32 630.696C1156.07 628.332 1147.52 612.498 1138.97 609.63C1137.56 609.114 1136.03 609.052 1134.58 609.452C1133.13 609.851 1131.85 610.693 1130.9 611.859C1122.78 620.464 1131.25 641.472 1131.33 641.685L1129.55 642.421C1129.29 641.782 1124.93 630.968 1125.49 621.297C1125.5 621.22 1125.5 621.142 1125.49 621.064C1125.57 617.201 1126.98 613.482 1129.49 610.541C1130.69 609.114 1132.29 608.087 1134.09 607.598C1135.89 607.11 1137.8 607.183 1139.55 607.809L1140.37 608.119C1149.36 611.84 1157.89 627.247 1158.26 630.503Z" fill="#EDAD5A"/>
<g style="mix-blend-mode:soft-light" opacity="0.6">
<path d="M1140.4 608.119C1127.32 607.072 1125.71 619.223 1125.53 621.064C1125.61 617.201 1127.02 613.482 1129.53 610.541C1130.72 609.114 1132.33 608.087 1134.13 607.598C1135.93 607.11 1137.83 607.183 1139.59 607.809L1140.4 608.119Z" fill="#CFE4FD"/>
</g>
<path d="M1320.37 665.909L1317.7 677.828L1313.63 696.026L1310.76 708.836C1310.56 709.716 1310.04 710.489 1309.29 710.996C1308.55 711.504 1307.63 711.709 1306.74 711.569L1282.08 707.693C1281.18 707.549 1280.37 707.068 1279.82 706.347C1279.26 705.627 1279 704.721 1279.09 703.817L1279.89 695.076L1280.28 690.735L1281.34 678.778L1281.94 672.15L1283.03 659.999L1320.37 665.909Z" fill="#BEE7FD"/>
<path d="M1281.94 672.228L1317.72 677.828L1313.63 696.026L1280.28 690.813L1281.94 672.228Z" fill="#EEBF2D"/>
<g style="mix-blend-mode:multiply">
<path d="M1320.37 665.909L1317.7 677.828L1313.63 696.026L1310.76 708.836C1310.56 709.716 1310.04 710.489 1309.29 710.996C1308.55 711.504 1307.63 711.709 1306.74 711.569L1282.08 707.693C1281.18 707.549 1280.37 707.068 1279.82 706.347C1279.26 705.627 1279 704.722 1279.09 703.817L1279.89 695.076C1285.45 694.379 1290.85 692.72 1295.85 690.173C1300.23 687.526 1304.11 684.128 1307.31 680.134C1310.18 676.852 1312.63 673.218 1314.6 669.32C1315.22 667.773 1316.26 666.43 1317.6 665.444L1320.37 665.909Z" fill="#BEE7FD"/>
</g>
<g style="mix-blend-mode:soft-light" opacity="0.6">
<path d="M1298.19 662.441C1297.65 662.848 1297.11 663.235 1296.6 663.661C1294.35 665.548 1292.18 667.525 1290.09 669.592C1289.33 670.348 1284.37 675.289 1281.34 678.855L1281.94 672.227L1283.03 660.076L1298.19 662.441Z" fill="white"/>
</g>
<path d="M1283.81 650.29L1283.27 653.718C1283.16 654.416 1283.64 655.07 1284.34 655.179L1320.68 660.854C1321.38 660.963 1322.03 660.486 1322.14 659.788L1322.68 656.36C1322.78 655.662 1322.31 655.008 1321.61 654.899L1285.27 649.224C1284.57 649.115 1283.92 649.592 1283.81 650.29Z" fill="#58C5F4"/>
<g style="mix-blend-mode:multiply" opacity="0.5">
<path d="M1322.64 656.355L1322.12 659.805C1322.06 660.136 1321.87 660.431 1321.59 660.626C1321.32 660.822 1320.98 660.902 1320.65 660.851L1284.31 655.173C1284.15 655.149 1283.99 655.093 1283.84 655.008C1283.7 654.923 1283.58 654.811 1283.48 654.678C1283.38 654.544 1283.31 654.393 1283.27 654.232C1283.23 654.071 1283.22 653.903 1283.24 653.739L1283.36 653.061C1283.91 653.136 1284.45 653.239 1284.99 653.371C1294.15 655.484 1303.55 656.377 1312.95 656.026C1314.26 656.049 1315.57 655.852 1316.83 655.444C1317.43 655.199 1317.99 654.851 1318.47 654.417L1321.58 654.902C1321.91 654.954 1322.21 655.136 1322.41 655.409C1322.61 655.681 1322.69 656.021 1322.64 656.355Z" fill="#58C5F4"/>
</g>
<path d="M1280.8 655.223L1280.2 659.052C1280.08 659.824 1280.61 660.548 1281.38 660.669L1321.78 666.978C1322.55 667.098 1323.28 666.57 1323.4 665.799L1323.99 661.969C1324.12 661.197 1323.59 660.473 1322.81 660.353L1282.41 654.043C1281.64 653.923 1280.92 654.451 1280.8 655.223Z" fill="#58C5F4"/>
<g style="mix-blend-mode:multiply" opacity="0.5">
<path d="M1324 661.956L1323.4 665.832C1323.34 666.199 1323.13 666.528 1322.83 666.749C1322.53 666.97 1322.16 667.065 1321.79 667.014L1281.38 660.696C1281.2 660.67 1281.02 660.608 1280.86 660.513C1280.7 660.417 1280.56 660.291 1280.45 660.141C1280.34 659.991 1280.26 659.821 1280.22 659.64C1280.18 659.459 1280.17 659.271 1280.2 659.088L1280.32 658.332C1280.92 658.332 1281.52 658.545 1282.12 658.681C1292.29 661.016 1302.72 662.013 1313.14 661.646C1314.61 661.653 1316.07 661.431 1317.47 660.987C1318.14 660.726 1318.76 660.338 1319.29 659.844L1322.76 660.386C1323.13 660.43 1323.47 660.62 1323.7 660.914C1323.94 661.209 1324.04 661.583 1324 661.956Z" fill="#58C5F4"/>
</g>
<g style="mix-blend-mode:screen" opacity="0.5">
<path d="M1304.44 652.228C1303.31 652.111 1302.19 651.956 1301.24 651.898C1298.77 651.762 1296.29 651.627 1293.83 651.433C1290.46 651.2 1287.1 650.89 1283.75 650.483V650.29C1283.8 649.956 1283.98 649.657 1284.26 649.457C1284.53 649.257 1284.87 649.174 1285.2 649.224L1304.44 652.228Z" fill="#58C5F4"/>
</g>
<path d="M441.989 737.674H209.553L245.151 662.886H406.391L441.989 737.674Z" fill="#016E8D"/>
<g style="mix-blend-mode:screen" opacity="0.5">
<path d="M246.004 737.674H244.279L269.232 662.886H270.434L246.004 737.674Z" fill="#016E8D"/>
</g>
<g style="mix-blend-mode:screen" opacity="0.5">
<path d="M237.783 678.371L238.152 677.576H413.39L413.778 678.371H237.783Z" fill="#016E8D"/>
</g>
<g style="mix-blend-mode:screen" opacity="0.5">
<path d="M278.248 737.674H276.542L291.607 662.886H292.81L278.248 737.674Z" fill="#016E8D"/>
</g>
<g style="mix-blend-mode:screen" opacity="0.5">
<path d="M310.512 737.674H308.786L313.982 662.886H315.185L310.512 737.674Z" fill="#016E8D"/>
</g>
<g style="mix-blend-mode:screen" opacity="0.5">
<path d="M342.756 737.674H341.03L336.357 662.886H337.56L342.756 737.674Z" fill="#016E8D"/>
</g>
<g style="mix-blend-mode:screen" opacity="0.5">
<path d="M375.019 737.674H373.294L358.732 662.886H359.935L375.019 737.674Z" fill="#016E8D"/>
</g>
<g style="mix-blend-mode:screen" opacity="0.5">
<path d="M407.263 737.674H405.538L381.108 662.886H382.31L407.263 737.674Z" fill="#016E8D"/>
</g>
<path d="M199.257 675.735H9.61218V692.015H199.257V675.735Z" fill="#233C65"/>
<path d="M199.238 675.735H9.61218L38.6377 614.727H170.212L199.238 675.735Z" fill="#016E8D"/>
<g style="mix-blend-mode:screen" opacity="0.5">
<path d="M39.3357 675.735H37.9397L58.2983 614.727H59.2677L39.3357 675.735Z" fill="#016E8D"/>
</g>
<g style="mix-blend-mode:screen" opacity="0.5">
<path d="M32.6271 627.363L32.9373 626.704H175.913L176.223 627.363H32.6271Z" fill="#016E8D"/>
</g>
<g style="mix-blend-mode:screen" opacity="0.5">
<path d="M26.5776 640.096L26.9266 639.34H181.923L182.272 640.096H26.5776Z" fill="#016E8D"/>
</g>
<g style="mix-blend-mode:screen" opacity="0.5">
<path d="M19.3843 655.173L19.8108 654.282H189.02L189.466 655.173H19.3843Z" fill="#016E8D"/>
</g>
<g style="mix-blend-mode:screen" opacity="0.5">
<path d="M65.6467 675.735H64.2507L76.5434 614.727H77.5322L65.6467 675.735Z" fill="#016E8D"/>
</g>
<g style="mix-blend-mode:screen" opacity="0.5">
<path d="M91.9577 675.735H90.5617L94.8079 614.727H95.7774L91.9577 675.735Z" fill="#016E8D"/>
</g>
<g style="mix-blend-mode:screen" opacity="0.5">
<path d="M118.288 675.735H116.873L113.072 614.727H114.042L118.288 675.735Z" fill="#016E8D"/>
</g>
<g style="mix-blend-mode:screen" opacity="0.5">
<path d="M144.599 675.735H143.184L131.318 614.727H132.287L144.599 675.735Z" fill="#016E8D"/>
</g>
<g style="mix-blend-mode:screen" opacity="0.5">
<path d="M170.91 675.735H169.514L149.582 614.727H150.552L170.91 675.735Z" fill="#016E8D"/>
</g>
<g style="mix-blend-mode:multiply" opacity="0.2">
<path d="M199.238 675.735V692.034H9.61218V685.871C11.8523 685.411 14.1311 685.165 16.4178 685.135C59.0717 683.332 101.793 683.881 144.386 686.782C153.227 687.402 162.263 688.08 170.891 686.046C175.657 684.951 180.129 682.835 183.998 679.844C185.376 678.677 186.549 677.289 187.468 675.735H199.238Z" fill="#2B1A5C"/>
</g>
</g>
</g>
<defs>
<clipPath id="clip0_29_634">
<rect width="1440" height="686" fill="white"/>
</clipPath>
<clipPath id="clip1_29_634">
<rect width="1566" height="969" fill="white" transform="translate(-63 -141.5)"/>
</clipPath>
</defs>
</svg>
